PathFileType	4	(X/Y/Z)	S240501-1155_P07_T01_0-394.trc
DataRate	CameraRate	NumFrames	NumMarkers	Units	OrigDataRate	OrigDataStartFrame	OrigNumFrames
60	60	6	13	m	60	98	394
Frame#	Time	Nose			LEye			LEar			LShoulder			LElbow			LWrist			LHip			REye			REar			RShoulder			RElbow			RWrist			RHip		
		X1	Y1	Z1	X2	Y2	Z2	X3	Y3	Z3	X4	Y4	Z4	X5	Y5	Z5	X6	Y6	Z6	X7	Y7	Z7	X8	Y8	Z8	X9	Y9	Z9	X10	Y10	Z10	X11	Y11	Z11	X12	Y12	Z12	X13	Y13	Z13
99	1.65	-0.048198601684558674	1.6559613137820957	0.15812238614165244	-0.07583054901563803	1.6228817701781222	0.1787461657982904	-0.04742188080835982	1.5735156084737383	0.27583623350540337	0.10188304398414566	1.5082412759507764	0.28607025068202496	0.2938731932108498	1.4686101441489816	0.13426052714217007	0.10944663463720426	1.5933933477868654	0.11578589413864301	0.5377616724033012	1.5969022759491311	0.21199981646450777	-0.08094301267792214	1.685488325928974	0.17942323237139413	-0.06793422416210905	1.741249595794913	0.2750508821298093	0.10105528583067087	1.8311679463644523	0.31466860547632686	0.32998552832818073	1.9320796602899635	0.25264258075159796	0.3208918076012986	1.9033864524174	0.0397899222195766	0.5069633892109007	1.809302239414136	0.17675104293194105
100	1.6666666666666667	-0.04739594582653803	1.6568376395476951	0.15734075215934307	-0.07634309258930662	1.6236757841500695	0.1783233650085612	-0.05048386925510579	1.5743239726313647	0.2743880299069608	0.10223630417954599	1.5070295431380323	0.28228495763177486	0.292004750865004	1.46660223094088	0.1347152878776548	0.1122257151993788	1.5927257264347987	0.11684093711094971	0.5355024599819166	1.596388270167077	0.21391007202315987	-0.07874708991944399	1.6893616820388886	0.17824364667281778	-0.06539098753617606	1.7420724414391273	0.2743564508026832	0.1005703679973977	1.8296168949726643	0.3164986030657494	0.32974244441090445	1.9360854694908285	0.25315251800866884	0.32094324135210117	1.9034536986210828	0.039576854301496586	0.5027478727825297	1.8192484325718472	0.21953349083129192
101	1.6833333333333333	-0.04735799599247356	1.6567374941223878	0.1572857972554387	-0.07635901706062406	1.623583984202505	0.17817459027475616	-0.05048855318431267	1.5741351455641206	0.27426676791942445	0.10545092904996599	1.5067606566686877	0.28288371783001054	0.2940144074129658	1.4677774989191776	0.134857721627852	0.11414646892675773	1.5896757138834388	0.1168760354359079	0.5178991238443341	1.5896791471390213	0.2203201749864857	-0.08031396295572465	1.688892503230787	0.17838564398658874	-0.06719626046240183	1.7418884105459798	0.27434302312507575	0.1021179198903828	1.8297561048534452	0.3161052371571591	0.32711182081257417	1.9320386385775459	0.25355645589251236	0.3206700585172184	1.903138881252933	0.039490069812280426	0.5097119368085797	1.8111108402241438	0.1792100354827538
102	1.7	-0.0511768364588007	1.6588188454011958	0.1587482794055898	-0.07357105366149184	1.6235915346972056	0.1819070324866306	-0.04925025151711945	1.5731439627510593	0.2748484847267467	0.10381392100389576	1.5079559641521665	0.2861668836616607	0.2945852870780534	1.4664653112726476	0.13573771778092222	0.11504825815724846	1.5877427300255857	0.11234150268452335	0.5223435027422464	1.5884091402834841	0.2201768881509744	-0.08074073089681082	1.6885312257977145	0.17853058384643863	-0.06595253866596364	1.7419919228086016	0.27463059170901777	0.10119118593055293	1.8318492665469288	0.3138898066387677	0.32688341299448687	1.9311789680089098	0.25395387953293524	0.3197127189258927	1.9036731810798213	0.03983881889197281	0.513096039823908	1.8077226896830583	0.17942159887660059
103	1.7166666666666666	-0.05141542236812705	1.661463123455652	0.15878278968948265	-0.07414229284165899	1.628775772263715	0.18005497107129986	-0.04926882746171141	1.573448658987097	0.2750426400216597	0.10230800533255673	1.5065002933961138	0.287184143785312	0.29415301171722447	1.46690897269791	0.13571352771495024	0.11462132579662121	1.587498180344636	0.10836963953287047	0.5213525243481872	1.5888548516627887	0.2202203189569371	-0.08070839793328344	1.6884903427739373	0.17853675800138266	-0.06584019434710364	1.741650282753892	0.27492617369492284	0.10272011268386053	1.8321425628802	0.3136603458278689	0.3266391510567894	1.9312315932869575	0.2540426869624437	0.3207807541392936	1.9033612963343038	0.03975757647024969	0.5169745666205368	1.8081119139769593	0.18455630887383492
104	1.7333333333333334	-0.05083209894058183	1.6616593684546972	0.1586280422203346	-0.07329449408079487	1.6268650246750118	0.18113084743690058	-0.04852703144760644	1.5738726547099824	0.27556405419558033	0.10454891980075767	1.5064983117152675	0.28693926121262153	0.29494961773388734	1.466567896431251	0.13554812573280323	0.11492924565800072	1.5899513608128517	0.10648805784648975	0.540325180002771	1.5988017453967507	0.2171802412172748	-0.08015729289299613	1.6887313947862512	0.1782795070073814	-0.06535393717420304	1.7415175160758445	0.27475676785275455	0.10180257949838543	1.8329175293802495	0.3125273272090413	0.32650258785043695	1.9296083733972618	0.2510131499314655	0.32022314140961905	1.9037468952173644	0.03995766635165369	0.5115135631199578	1.8079510718127265	0.18377602381247912
